<?xml version="1.0" encoding="utf-8"?>
<!-- Generator: Adobe Illustrator 23.0.3, SVG Export Plug-In . SVG Version: 6.00 Build 0)  -->
<svg version="1.1" id="Camada_1" xmlns="http://www.w3.org/2000/svg" xmlns:xlink="http://www.w3.org/1999/xlink" x="0px" y="0px"
	 viewBox="0 0 226.4 194.3" style="enable-background:new 0 0 226.4 194.3;" xml:space="preserve">
<style type="text/css">
	.st0{fill:none;stroke:#FFB000;stroke-miterlimit:10;}
	.st1{fill:url(#SVGID_1_);}
	.st2{fill:#FFB000;}
</style>
<g id="ilustra-fale" transform="translate(0.5)">
	<g id="Grupo_2926" transform="translate(0 34.975)">
		<path id="Caminho_3737" class="st0" d="M206.1,27.8c5,12.2,7.6,25.2,7.7,38.3c0,17.1-4.3,33.9-12.5,48.8"/>
		<path id="Caminho_3738" class="st0" d="M24.2,114.9C15.9,100,11.6,83.2,11.6,66.2C11.5,44.9,18.2,24.1,30.8,7"/>
	</g>
	<g id="Grupo_2927" transform="translate(163.216 155.445)">
		<line id="Linha_500" class="st0" x1="5.2" y1="11.9" x2="-5.2" y2="11.9"/>
		<line id="Linha_501" class="st0" x1="29.6" y1="11.9" x2="19.2" y2="11.9"/>
		<line id="Linha_502" class="st0" x1="12.2" y1="18.9" x2="12.2" y2="29.3"/>
		<line id="Linha_503" class="st0" x1="12.2" y1="-5.5" x2="12.2" y2="4.9"/>
	</g>
	<g id="Grupo_2928" transform="translate(34.975 155.445)">
		<line id="Linha_504" class="st0" x1="15" y1="11.9" x2="8" y2="18.9"/>
		<line id="Linha_505" class="st0" x1="32.4" y1="-5.5" x2="25.5" y2="1.4"/>
		<line id="Linha_506" class="st0" x1="25.5" y1="11.9" x2="32.4" y2="18.9"/>
		<line id="Linha_507" class="st0" x1="8" y1="-5.5" x2="15" y2="1.4"/>
	</g>
	<g id="Grupo_2929" transform="translate(23.317 11.658)">
		<path id="Caminho_3739" class="st0" d="M96.3,30.6c29.8,3.6,52.2,28.9,52.3,58.9c0,32.7-26.5,59.2-59.1,59.2h-0.1"/>
		<path id="Caminho_3740" class="st0" d="M33.6,109.7c-2.2-6.5-3.4-13.3-3.5-20.2c0-15.7,6.3-30.8,17.4-41.8"/>
		<path id="Caminho_3741" class="st0" d="M153.2,40.7c10.7,14,16.5,31.2,16.4,48.8c-0.1,10.8-2.2,21.4-6.3,31.4"/>
		<path id="Caminho_3742" class="st0" d="M9.2,89.5c0.1-44.2,35.9-80,80.1-80.2"/>
		<path id="Caminho_3743" class="st0" d="M120.7,163.4c-9.9,4.2-20.6,6.4-31.4,6.3c-5.8,0-11.7-0.6-17.4-1.7
			c-4.8-1-9.5-2.5-13.9-4.5"/>
	</g>
	<g id="Grupo_2931" transform="translate(151.558)">
		<g id="Grupo_2930">
			<line id="Linha_508" class="st0" x1="13.4" y1="10.5" x2="13.4" y2="21"/>
			<line id="Linha_509" class="st0" x1="13.4" y1="34.9" x2="13.4" y2="45.4"/>
			<line id="Linha_510" class="st0" x1="6.4" y1="28" x2="-4" y2="28"/>
			<line id="Linha_511" class="st0" x1="30.8" y1="28" x2="20.4" y2="28"/>
		</g>
	</g>
</g>
<g>
	<linearGradient id="SVGID_1_" gradientUnits="userSpaceOnUse" x1="82.9819" y1="91.5615" x2="144.7" y2="91.5615">
		<stop  offset="0" style="stop-color:#1A93BB"/>
		<stop  offset="1" style="stop-color:#1AA7BB"/>
	</linearGradient>
	<path class="st1" d="M87.7,98.9c-4.6-4.4-6.3-10.6-3-16.4c2.1-3.6,5.2-6.1,8.8-8c4.6-2.5,9.5-3.8,14.6-4.3c6.5-0.7,13-0.1,19.2,2.1
		c4.2,1.4,8,3.5,11.2,6.7c2.9,3,4.7,6.5,4.3,10.9c-0.3,3.3-1.8,6-3.9,8.3c-0.7,0.8-0.7,0.8-0.3,1.8c1.9,4.2,3.9,8.4,5.8,12.6
		c0.1,0.2,0.1,0.3,0.3,0.6c-1.4-0.6-2.7-1.1-4-1.6c-4.5-1.8-9-3.6-13.5-5.4c-0.4-0.1-0.5-0.3-0.6-0.7c-0.8-3.2-2.8-5.5-5.5-7.4
		c-3.3-2.3-7-3.5-10.9-4.1c-5.3-0.8-10.6-0.5-15.8,1.3C92,96.1,89.7,97.3,87.7,98.9z"/>
	<path class="st2" d="M81.8,125.3c1.6-3.6,3.2-7,4.8-10.4c-0.6-0.7-1.2-1.4-1.7-2.2c-2.3-3.4-2.2-7.4,0.2-10.8
		c2-2.8,4.8-4.6,7.9-5.8c4.7-1.9,9.5-2.5,14.5-2.1c4,0.3,7.7,1.2,11.3,3.1c2.3,1.2,4.3,2.7,5.8,4.9c2.6,3.6,2.5,7.8-0.1,11.3
		c-2,2.7-4.8,4.5-7.9,5.7c-6.6,2.6-13.4,2.9-20.3,1.1c-0.6-0.2-1.2-0.1-1.8,0.1C90.4,121.9,86.1,123.6,81.8,125.3z"/>
</g>
</svg>
