<svg id="OBJECTS" xmlns="http://www.w3.org/2000/svg" viewBox="0 0 436.6 304.85"><defs><style>.cls-1{opacity:0.22;}.cls-2{fill:#fce6c5;}.cls-3{opacity:0.3;}.cls-4{fill:#222221;}.cls-5{fill:#b3b3b3;}.cls-6{fill:#3e3e3d;}.cls-7{fill:#6f6f6f;}.cls-8{fill:#fff;}.cls-12,.cls-9{fill:none;stroke:#425973;stroke-linecap:round;stroke-linejoin:round;}.cls-9{stroke-width:3.3px;}.cls-10{fill:#dd9ab2;}.cls-11{fill:#d6819f;}.cls-12{stroke-width:2.75px;}.cls-13{fill:#e9c2d0;}.cls-14{fill:#db9022;}</style></defs><title>page-erro</title><g class="cls-1"><path class="cls-2" d="M231.56,70.28c-39.14,12.5-163.11-49.12-153.41,35,1.52,12.52,9.58,30.2,2.77,41.88C76,156,67,161.08,58.21,164.48,35.4,173.75,26.9,191.16,32.68,216c15.45,66.94,99.58,51.06,143.75,31.21,31.4-14.77,68.45-17.3,101-4.81,25.48,10.18,41.36,31.52,71.27,25.27,26.52-5.32,30.52-30.36,22.77-53.67-4.4-14.42-7.56-20.51,1.17-34.43,7.35-13.83,20.3-24.3,21.29-40.5.22-17.54-7.84-35.21-23.44-41.86-12.76-5.43-24.33-3.24-36.95-6.58-28.09-7.89-46.13-51.52-81-36.52-8.69,4.1-13.58,13.55-23,16.3"/></g><g class="cls-3"><path class="cls-2" d="M217.37,64.27c3.54,0,3.54-5.5,0-5.5s-3.55,5.5,0,5.5Z"/><path class="cls-2" d="M54.43,148.83c7.08,0,7.09-11,0-11s-7.09,11,0,11Z"/><path class="cls-2" d="M385.12,192.69c7.08,0,7.09-11,0-11s-7.09,11,0,11Z"/><path class="cls-2" d="M198.8,61.52c7.08,0,7.09-11,0-11s-7.08,11,0,11Z"/><path class="cls-2" d="M396.12,175.23c9.2,0,9.21-14.3,0-14.3s-9.22,14.3,0,14.3Z"/><path class="cls-2" d="M35.87,167c9.2,0,9.21-14.3,0-14.3s-9.22,14.3,0,14.3Z"/><path class="cls-2" d="M341.12,81c9.2,0,9.21-14.3,0-14.3s-9.22,14.3,0,14.3Z"/><path class="cls-2" d="M214.62,52.58c10.61,0,10.63-16.5,0-16.5s-10.64,16.5,0,16.5Z"/><path class="cls-2" d="M402,188.16c5.31,0,5.32-8.25,0-8.25s-5.32,8.25,0,8.25Z"/><path class="cls-2" d="M33.94,144c5.31,0,5.32-8.25,0-8.25s-5.31,8.25,0,8.25Z"/><path class="cls-2" d="M358.3,89c5.31,0,5.32-8.25,0-8.25S353,89,358.3,89Z"/><path class="cls-2" d="M356.93,73.89c3.54,0,3.54-5.5,0-5.5s-3.55,5.5,0,5.5Z"/><path class="cls-2" d="M78.36,64.41c7.07,0,7.09-11,0-11s-7.09,11,0,11Z"/><path class="cls-2" d="M391.3,254c7.08,0,7.09-11,0-11s-7.08,11,0,11Z"/><path class="cls-2" d="M33.81,258.83c7.07,0,7.09-11,0-11s-7.09,11,0,11Z"/><path class="cls-2" d="M94.86,56.16c3.53,0,3.54-5.5,0-5.5s-3.55,5.5,0,5.5Z"/><path class="cls-2" d="M392,232c3.54,0,3.55-5.5,0-5.5s-3.54,5.5,0,5.5Z"/><path class="cls-2" d="M50.3,265.71c3.54,0,3.55-5.5,0-5.5s-3.54,5.5,0,5.5Z"/></g><path class="cls-4" d="M128.82,173.11c-3.71,1.3-6.15,1.55-8-2.19-1.46-2.89-2.44-5.87-4.28-8.57-4-5.85-7.85-6.25-14.23-5.41s-15-.79-16-8.12c-.68-5.23-.72-10-3-14.92-1.13-2.4-4.68-.31-3.56,2.09,2.53,5.42,1.42,11.32,3.28,16.84s8.16,7.42,13.43,8c4,.48,7.48-.48,11.38-.48,4.2,0,7.06,7.21,8.39,10.37,2.78,6.58,6.7,8.79,13.7,6.32,2.49-.88,1.41-4.86-1.1-4Z"/><path class="cls-4" d="M85.23,128.34a12.5,12.5,0,0,1-4.55,3.53c-1.9,1-.22,3.8,1.67,2.85A15.9,15.9,0,0,0,88.08,130a1.66,1.66,0,0,0-.6-2.26,1.68,1.68,0,0,0-2.25.6Z"/><path class="cls-4" d="M79.32,123.94c0,3.49.52,7,.55,10.45a1.65,1.65,0,0,0,3.3,0c0-3.49-.54-7-.55-10.45a1.65,1.65,0,0,0-3.3,0Z"/><path class="cls-4" d="M73.75,127.31c2.21,2.76,4.45,5.51,7.48,7.41,1.82,1.13,3.47-1.73,1.67-2.85-2.77-1.73-4.8-4.38-6.82-6.89-1.32-1.66-3.64.69-2.33,2.33Z"/><path class="cls-4" d="M71,132.26a10.75,10.75,0,0,0,11,2.63c2-.62,1.16-3.81-.88-3.19a7.39,7.39,0,0,1-7.75-1.77c-1.54-1.46-3.88.87-2.33,2.33Z"/><path class="cls-4" d="M297.53,183.34c.15-5.39,2-7.18,7.15-7.61a101.09,101.09,0,0,0,10.16-.85c5.1-.95,5-8,7-11.62,3-5.55,11.12-5,16.35-6.6,5.76-1.81,8-6.69,8.31-12.37.16-2.65-4-2.64-4.12,0-.51,8.45-6.71,8.75-13.51,10.15-6,1.23-10.07,4.52-12.15,10.3-.66,1.81-.82,5.59-3,6.16-3.49.94-7.5.51-11.09.9-6.74.73-9.07,5.14-9.24,11.54-.08,2.67,4,2.66,4.12,0Z"/><path class="cls-4" d="M336.78,139.23a13.07,13.07,0,0,0,7.2,7.21,1.66,1.66,0,0,0,2-1.16,1.69,1.69,0,0,0-1.15-2,9.33,9.33,0,0,1-4.9-4.89,1.7,1.7,0,0,0-2-1.16,1.65,1.65,0,0,0-1.15,2Z"/><path class="cls-4" d="M341.67,134.94v8.25a1.65,1.65,0,0,0,3.3,0v-8.25a1.65,1.65,0,0,0-3.3,0Z"/><path class="cls-4" d="M347.23,135.61a15.28,15.28,0,0,1-5.08,7c-1.65,1.34.7,3.66,2.33,2.33a18.32,18.32,0,0,0,5.93-8.43c.7-2-2.49-2.87-3.18-.87Z"/><path class="cls-4" d="M351.24,139.06a12.61,12.61,0,0,1-6.16,4.74c-1.94.8-1.09,4,.88,3.19a16.52,16.52,0,0,0,8.13-6.26c1.14-1.81-1.71-3.46-2.85-1.67Z"/><path class="cls-5" d="M317.2,243.11c0,2.89-21.61,3.72-23.94,3.72H131.58c-2.33,0-23.94-.83-23.94-3.72l19.71-29.55c0-2.89,1.9-5.23,4.23-5.23H293.26c2.33,0,4.22,2.34,4.22,5.23Z"/><polygon class="cls-6" points="179.17 236.53 137.62 236.53 144.89 218.93 182.47 218.93 179.17 236.53"/><polygon class="cls-6" points="245.67 236.53 287.22 236.53 279.94 218.93 242.37 218.93 245.67 236.53"/><polygon class="cls-6" points="291.84 236.53 306.47 236.53 294.5 218.93 283.46 218.93 291.84 236.53"/><polygon class="cls-6" points="133 236.53 118.37 236.53 130.34 218.93 141.38 218.93 133 236.53"/><polygon class="cls-6" points="242.01 236.53 182.82 236.53 186.12 218.93 238.71 218.93 242.01 236.53"/><rect class="cls-5" x="121.98" y="222.14" width="180.88" height="2.69"/><rect class="cls-5" x="120.02" y="228.74" width="184.8" height="2.69"/><path class="cls-6" d="M318.3,250c0,2.34-.48,4.23-2.81,4.23H109.35c-2.34,0-2.82-1.89-2.82-4.23v-3.62c0-2.33.48-4.22,2.82-4.22H315.49c2.33,0,2.81,1.89,2.81,4.22Z"/><path class="cls-7" d="M251.05,248.24a2.2,2.2,0,0,1-2.19,2.21H176a2.2,2.2,0,0,1-2.2-2.21h0A2.2,2.2,0,0,1,176,246h72.88a2.2,2.2,0,0,1,2.19,2.2Z"/><rect class="cls-6" x="125.24" y="97.11" width="174.35" height="116.68" rx="4.23"/><path class="cls-8" d="M212.42,103a1.76,1.76,0,0,0,0-3.52,1.76,1.76,0,0,0,0,3.52Z"/><rect class="cls-8" x="137.45" y="106.05" width="149.94" height="100.34" rx="3.63"/><line class="cls-9" x1="190.59" y1="143.78" x2="178.14" y2="156.23"/><line class="cls-9" x1="190.59" y1="156.23" x2="178.15" y2="143.78"/><line class="cls-9" x1="246.69" y1="143.78" x2="234.24" y2="156.23"/><line class="cls-9" x1="246.69" y1="156.23" x2="234.25" y2="143.78"/><path class="cls-10" d="M241.1,171.24v12.29a4.4,4.4,0,0,1-4.4,4.4h-2.37a4.4,4.4,0,0,1-4.4-4.4V171.24"/><polygon class="cls-11" points="237.45 171.89 235.52 186.19 233.59 171.89 237.45 171.89"/><line class="cls-12" x1="175.12" y1="171.23" x2="249.71" y2="171.23"/><path class="cls-13" d="M162.92,169.41c7.09,0,7.09-11,0-11s-7.1,11,0,11Z"/><path class="cls-13" d="M261.92,169.41c7.09,0,7.09-11,0-11s-7.1,11,0,11Z"/><path class="cls-14" d="M271.27,82.69V119c0,3.55,5.5,3.55,5.5,0V82.69c0-3.54-5.5-3.54-5.5,0Z"/><path class="cls-14" d="M274,133c5.32,0,5.32-8.25,0-8.25S268.7,133,274,133Z"/></svg>